<?xml version="1.0" encoding="UTF-8"?>
<svg width="700pt" height="700pt" version="1.1" viewBox="0 0 700 700" xmlns="http://www.w3.org/2000/svg">
 <g>
  <path d="m315 271.25c0 9.6641-7.8359 17.5-17.5 17.5s-17.5-7.8359-17.5-17.5 7.8359-17.5 17.5-17.5 17.5 7.8359 17.5 17.5"/>
  <path d="m420 271.25c0 9.6641-7.8359 17.5-17.5 17.5s-17.5-7.8359-17.5-17.5 7.8359-17.5 17.5-17.5 17.5 7.8359 17.5 17.5"/>
  <path d="m413.81 335.06c-15.055 15.059-38.316 23.688-63.812 23.688s-48.758-8.6289-63.812-23.688c-3.418-3.418-8.957-3.418-12.371 0-3.418 3.418-3.418 8.957 0 12.371 18.301 18.316 46.07 28.816 76.184 28.816s57.883-10.5 76.188-28.812c3.418-3.418 3.418-8.957 0-12.371-3.418-3.4219-8.957-3.4219-12.375-0.003906z"/>
  <path d="m455 113.75h-17.5v-38.5c0-7.7305-6.5312-14-14.582-14h-145.84c-8.0508 0-14.582 6.2695-14.582 14v38.5h-17.5c-48.324 0-87.5 39.176-87.5 87.5v175c0 48.324 39.176 87.5 87.5 87.5v35h210v-35c48.324 0 87.5-39.176 87.5-87.5v-175c0-48.324-39.176-87.5-87.5-87.5zm-175-35h140v35h-140zm157.5 402.5h-175v-17.5h175zm87.5-105c0 38.598-31.402 70-70 70h-210c-38.598 0-70-31.402-70-70v-175c0-38.598 31.402-70 70-70h210c38.598 0 70 31.402 70 70z"/>
 </g>
</svg>
